<svg width="500" height="180" xmlns="http://www.w3.org/2000/svg">
 <g id="Layer_1">
  <title>Layer 1</title>
  <g>
   <g>
    <path fill="none" d="m253.20083,80.7l1.27,-2.18c-0.44,0.73 -0.88,1.45 -1.32,2.18l0.05,0z" class="st2"/>
    <path fill="#94C020" d="m246.94083,125.1l-28.41,6.85l0,10.29c-0.01,0.66 -0.02,1.32 -0.02,1.99l2.64,2.29l11.38,10.45l12.06,-10.78l2.36,-2.05c-0.01,-0.47 -0.01,-0.94 -0.02,-1.41l0,0l0,-17.63l0.01,0z" class="st0"/>
    <polygon fill="#94C020" points="215.76083374023438,72.97000122070312 215.76083374023438,72.99000549316406 215.79083251953125,72.99000549316406 " class="st0"/>
    <path fill="#94C020" d="m215.79083,47.37c-0.01,0 -0.03,0 -0.04,0l0,14.94l0.04,-0.01l0,-14.93z" class="st0"/>
    <path fill="#94C020" d="m293.68083,97.2c26.16,-16.75 25.41,-41.6 25.41,-68.51c-11.67,0 -23.15,0 -34.64,0c0,24.15 1.6,48.83 -29.98,49.83c0,0 0,0 0,0l-1.27,2.18l-0.05,0c-1.03,1.71 -2.07,3.42 -3.1,5.13l0,8.27l5.28,2.6c-1.76,2.81 -3.52,5.62 -5.28,8.43l0,5.06c4.31,0 8.45,0 12.95,-0.75l28.99,51.01l37.46,0l0,-5.27l-35.77,-57.98z" class="st0"/>
    <polygon fill="#94C020" points="246.9708251953125,93.28999328613281 246.9708251953125,86.57000732421875 218.88082885742188,93.27999877929688 218.88082885742188,100 " class="st0"/>
    <polygon fill="#94C020" points="218.88082885742188,112.58000183105469 218.88082885742188,119.13999938964844 246.9708251953125,112.43000793457031 246.9708251953125,105.8699951171875 " class="st0"/>
    <polygon fill="#94C020" points="246.9708251953125,48.93000030517578 218.88082885742188,48.93000030517578 218.88082885742188,61.55999755859375 246.9708251953125,54.849998474121094 " class="st0"/>
    <polygon fill="#94C020" points="246.9708251953125,73.99000549316406 246.9708251953125,67.43000793457031 218.88082885742188,74.13999938964844 218.88082885742188,80.69999694824219 " class="st0"/>
    <polygon fill="#94C020" points="248.9008331298828,64.02999877929688 251.61082458496094,59.400001525878906 247.8908233642578,57.56999969482422 217.2808380126953,64.8800048828125 214.2608184814453,68.69000244140625 218.4808349609375,71.30000305175781 " class="st0"/>
    <polygon fill="#94C020" points="248.38082885742188,83.28999328613281 251.0908203125,78.66000366210938 247.37081909179688,76.83000183105469 216.76083374023438,84.14999389648438 213.74082946777344,87.94999694824219 217.96083068847656,90.55999755859375 " class="st0"/>
    <polygon fill="#94C020" points="247.600830078125,96.07000732421875 216.99082946777344,103.38999938964844 213.9708251953125,107.19999694824219 218.19082641601562,109.80999755859375 248.61082458496094,102.53999328613281 251.32083129882812,97.91000366210938 " class="st0"/>
    <path fill="#44245F" d="m255.33083,96.7l-5.28,-2.6l0,-8.27c1.03,-1.71 2.07,-3.42 3.1,-5.13c0.44,-0.73 0.88,-1.45 1.32,-2.18c0,0 0,0 0,0l0.62,-1.07l-5.05,-2.49l0,-8.28c1.86,-2.83 3.71,-5.67 5.57,-8.5l-5.57,-2.74l0,-8.05c0.17,0 0.28,0 0.28,0c4.27,0 7.31,-3.75 7.65,-7.78c0.03,-0.4 0.04,-0.79 0.03,-1.18c-0.07,-1.93 -0.7,-3.72 -1.42,-5.54c-0.7,-1.77 -1.63,-3.44 -2.77,-4.96c-2.33,-3.13 -5.46,-5.64 -8.97,-7.32c-2.16,-1.04 -4.47,-1.77 -6.83,-2.19l0,9.97l-9.43,0l0,-9.97c0,0.01 -2.72,0.62 -2.98,0.7c-0.98,0.29 -1.94,0.64 -2.88,1.04c-1.83,0.78 -3.56,1.78 -5.15,2.97c-3.07,2.3 -5.6,5.34 -7.18,8.85c-1.19,2.65 -2.13,5.49 -1.76,8.44c0.33,0.97 0.53,1.93 1.02,2.83c0.44,0.81 1.01,1.55 1.69,2.18c1.21,1.11 2.76,1.81 4.39,1.94c0.01,0 0.03,0 0.04,0l0,14.93l-0.04,0.01c-1.91,2.37 -3.82,4.74 -5.73,7.12l5.73,3.54l0.04,0.02l-0.04,0l0,8.45c-2.08,2.41 -4.17,4.83 -6.25,7.24l6.25,3.87l0,8.19c-2.01,2.4 -4.01,4.79 -6.02,7.19l6.02,3.73l0,8.23c-2.18,2.44 -4.36,4.87 -6.55,7.31c2.11,1.3 4.21,2.61 6.32,3.91l0,4.43l-0.01,0l0,10.45l16.98,15.59l17.44,-15.59l0,-16.33l0,0l0,-5.41c1.62,-2.76 3.25,-5.53 4.87,-8.29l-4.79,-2.36c0.01,-1.14 0.02,-2.28 0.04,-3.42l0,-5.06c1.78,-2.8 3.54,-5.61 5.3,-8.42zm-36.45,-47.77l28.09,0l0,5.92l-28.09,6.71l0,-12.63zm-4.62,19.76l3.02,-3.81l30.61,-7.32l3.72,1.83l-2.71,4.63l-30.42,7.27l-4.22,-2.6zm32.71,-1.26l0,6.56l-28.09,6.71l0,-6.56l28.09,-6.71zm-33.23,20.52l3.02,-3.81l30.61,-7.32l3.72,1.83l-2.71,4.63l-30.42,7.27l-4.22,-2.6zm33.23,-1.38l0,6.72l-28.09,6.71l0,-6.72l28.09,-6.71zm-0.03,56.16l0,0c0,0.47 0.01,0.94 0.01,1.41l-2.36,2.05l-12.06,10.78l-11.38,-10.45l-2.64,-2.29c0.01,-0.66 0.02,-1.32 0.02,-1.99l0,-10.29l28.41,-6.85l0,17.63zm3.85,-25.56l-2.66,4.56l-30.34,7.32l-0.12,0.03l-4.22,-2.61l3.02,-3.8l30.61,-7.32l3.71,1.82zm-31.91,1.97l0,-6.56l28.09,-6.71l0,6.56l-28.09,6.71zm29.73,-16.6l-30.42,7.27l-4.22,-2.61l3.02,-3.81l30.61,-7.32l3.72,1.83l-2.71,4.64z" class="st1"/>
    <polygon fill="#94C020" points="216.46083068847656,122.64999389648438 213.44082641601562,126.46000671386719 217.67083740234375,129.07000732421875 217.79083251953125,129.0399932861328 248.13082885742188,121.72999572753906 250.79083251953125,117.16999816894531 247.07083129882812,115.33999633789062 " class="st0"/>
   </g>
  </g>
  <g>
   <g id="svg_21">
    <path fill="#94C020" d="m366.135,151.98973c-4.53,3.74 -3.35,8.87 0.05,11.95l-13.64,0l0,-4.87l19.22,-41.59c-1.23,4.95 -1.79,10.06 -1.96,15.2c-0.22,6.48 2.01,14.62 -3.67,19.31z" class="st0"/>
    <path fill="#94C020" d="m408.845,62.56973l-2.9,8.92c-1.8,0.14 -3.63,0.91 -5.26,2.6c-6.86,7.08 -14.12,15.06 -19.8,23.65l24.1,-52.16c0.54,3.41 1.56,6.76 3.53,9.97c-0.22,0.76 -0.37,1.55 -0.42,2.37c-0.1,1.64 0.19,3.21 0.75,4.65z" class="st0"/>
    <path fill="#94C020" d="m424.565,58.88973c-0.17,2.84 -2.53,5.07 -5.38,5.07c-0.11,0 -0.22,-0.01 -0.33,-0.01c-1.44,-0.09 -2.76,-0.73 -3.71,-1.8c-0.96,-1.08 -1.44,-2.46 -1.36,-3.9c0.17,-2.84 2.53,-5.07 5.38,-5.07c0.11,0 0.22,0.01 0.33,0.01c2.97,0.18 5.24,2.73 5.07,5.7z" class="st0"/>
    <path fill="#94C020" d="m425.045,31.10973c-0.98,7.71 -2.51,13.22 -3.63,16.66c-0.52,-0.11 -1.04,-0.23 -1.59,-0.26c-0.22,-0.01 -0.44,-0.02 -0.66,-0.02c-0.89,0 -1.75,0.14 -2.59,0.34c-1.12,-3.43 -2.66,-8.96 -3.66,-16.72l12.13,0z" class="st0"/>
    <path fill="#94C020" d="m456.825,97.31973c-5.64,-8.43 -12.76,-16.24 -19.51,-23.21c-1.68,-1.74 -3.56,-2.5 -5.41,-2.61l-2.68,-8.23c0.58,-1.24 0.95,-2.6 1.03,-4.05c0.09,-1.44 -0.13,-2.83 -0.56,-4.13c1.76,-3 2.72,-6.13 3.24,-9.31l23.89,51.54z" class="st0"/>
    <path fill="#94C020" d="m451.095,148.55973c-0.69,-5.63 -0.2,-11.66 -0.62,-17.8c-0.22,-3.24 -0.82,-6.36 -1.72,-9.37c-4.02,-13.49 -14.12,-24.76 -23.9,-34.85c-3.07,-3.18 -3.03,-7 -1.39,-10l-2.26,-7.08c-0.66,0.12 -1.33,0.19 -2.02,0.19c-0.22,0 -0.44,-0.01 -0.66,-0.02c-0.64,-0.04 -1.24,-0.16 -1.84,-0.29l-2.24,7.02c1.72,3.03 1.82,6.93 -1.31,10.16c-9.81,10.13 -19.9,21.35 -23.92,34.87c-0.89,2.99 -1.48,6.1 -1.7,9.34c-0.42,6.17 0.09,12.21 -0.6,17.83c-0.68,5.62 -2.56,10.84 -7.76,15.38l6.24,0l6.37,-15.38l54.33,0l6.51,15.38l6.21,0c-5.16,-4.52 -7.04,-9.75 -7.72,-15.38zm-48.09,-27.17l1.16,-2.79l14.65,-34.47l15.78,37.26l-31.59,0z" class="st0"/>
    <path fill="#94C020" d="m485.455,159.06973l0,4.87l-13.62,0c3.38,-3.08 4.55,-8.19 0.03,-11.93c-5.69,-4.7 -3.44,-12.83 -3.67,-19.31c-0.18,-5.06 -0.72,-10.08 -1.9,-14.96l19.16,41.33z" class="st0"/>
    <path fill="#44245F" d="m471.865,152.00973c-5.69,-4.7 -3.44,-12.83 -3.67,-19.31c-0.18,-5.06 -0.72,-10.08 -1.9,-14.96c-0.73,-3.01 -1.69,-5.95 -2.96,-8.8c-1.77,-3.98 -3.99,-7.86 -6.51,-11.62c-5.64,-8.43 -12.76,-16.24 -19.51,-23.21c-1.68,-1.74 -3.56,-2.5 -5.41,-2.61l-2.68,-8.23c0.58,-1.24 0.95,-2.6 1.03,-4.05c0.09,-1.44 -0.13,-2.83 -0.56,-4.13c1.76,-3 2.72,-6.13 3.24,-9.31c0.63,-3.8 0.63,-7.68 0.65,-11.5c0.03,-6.8 -3.43,-20.88 -3.43,-20.88l-3.87,0c0,0 -0.31,7.1 -0.51,10.17c-0.18,2.71 -0.43,5.23 -0.73,7.54c-0.98,7.71 -2.51,13.22 -3.63,16.66c-0.52,-0.11 -1.04,-0.23 -1.59,-0.26c-0.22,-0.01 -0.44,-0.02 -0.66,-0.02c-0.89,0 -1.75,0.14 -2.59,0.34c-1.12,-3.43 -2.66,-8.96 -3.66,-16.72c-0.3,-2.31 -0.55,-4.83 -0.72,-7.54c-0.2,-3.07 -0.51,-10.17 -0.51,-10.17l-3.87,0c0,0 -3.46,14.08 -3.43,20.88c0.02,3.76 0.02,7.56 0.6,11.3c0.54,3.41 1.56,6.76 3.53,9.97c-0.22,0.76 -0.37,1.55 -0.42,2.37c-0.1,1.64 0.19,3.21 0.75,4.65l-2.9,8.92c-1.8,0.14 -3.63,0.91 -5.26,2.6c-6.86,7.08 -14.12,15.06 -19.8,23.65c-2.4,3.63 -4.52,7.36 -6.22,11.18c-1.23,2.78 -2.18,5.64 -2.9,8.56c-1.23,4.95 -1.79,10.06 -1.96,15.2c-0.22,6.48 2.01,14.62 -3.67,19.31c-4.53,3.74 -3.35,8.87 0.05,11.95c3.16,2.85 8.22,3.93 12.4,0.48c0.19,-0.16 0.38,-0.32 0.57,-0.48c5.2,-4.54 7.08,-9.76 7.76,-15.38c0.69,-5.62 0.18,-11.66 0.6,-17.83c0.22,-3.24 0.81,-6.35 1.7,-9.34c4.02,-13.52 14.11,-24.74 23.92,-34.87c3.13,-3.23 3.03,-7.13 1.31,-10.16l2.24,-7.02c0.6,0.13 1.2,0.25 1.84,0.29c0.22,0.01 0.44,0.02 0.66,0.02c0.69,0 1.36,-0.07 2.02,-0.19l2.26,7.08c-1.64,3 -1.68,6.82 1.39,10c9.78,10.09 19.88,21.36 23.9,34.85c0.9,3.01 1.5,6.13 1.72,9.37c0.42,6.14 -0.07,12.17 0.62,17.8c0.68,5.63 2.56,10.86 7.72,15.38c0.19,0.17 0.39,0.33 0.59,0.5c4.19,3.46 9.27,2.37 12.43,-0.5c3.38,-3.08 4.55,-8.19 0.03,-11.93zm-47.3,-93.12c-0.17,2.84 -2.53,5.07 -5.38,5.07c-0.11,0 -0.22,-0.01 -0.33,-0.01c-1.44,-0.09 -2.76,-0.73 -3.71,-1.8c-0.96,-1.08 -1.44,-2.46 -1.36,-3.9c0.17,-2.84 2.53,-5.07 5.38,-5.07c0.11,0 0.22,0.01 0.33,0.01c2.97,0.18 5.24,2.73 5.07,5.7z" class="st1"/>
   </g>
  </g>
  <g>
   <g>
    <rect fill="#94C020" height="29.9" width="45.72" class="st1" y="25.855" x="52.985"/>
    <rect fill="#94C020" height="15.38" width="29.25" class="st1" y="25.855" x="18.735"/>
    <rect fill="#94C020" height="30.08" width="40.08" class="st1" y="84.895" x="52.985"/>
    <rect fill="#94C020" height="12.95" width="29.25" class="st1" y="79.155" x="18.735"/>
    <rect fill="#94C020" height="12.93" width="29.25" class="st1" y="129.955" x="18.735"/>
    <rect fill="#94C020" height="12.96" width="29.25" class="st1" y="45.235" x="18.735"/>
    <rect fill="#94C020" height="10.58" width="29.25" class="st1" y="146.885" x="18.735"/>
    <rect fill="#94C020" height="12.9" width="29.25" class="st1" y="96.105" x="18.735"/>
    <rect fill="#94C020" height="12.95" width="29.25" class="st1" y="113.005" x="18.735"/>
    <rect fill="#94C020" height="12.96" width="29.25" class="st1" y="62.195" x="18.735"/>
    <path fill="#44245F" d="m52.985,18.195l1.44,0c0.55,0 1,-0.45 1,-0.99l0,-0.5c0,-0.55 -0.45,-0.99 -1,-0.99l-7.88,0c-0.55,0 -0.99,0.44 -0.99,0.99l0,0.5c0,0.54 0.44,0.99 0.99,0.99l1.44,0l0,23.04l-29.25,0l0,-23.04l1.44,0c0.55,0 0.99,-0.45 0.99,-0.99l0,-0.5c0,-0.55 -0.44,-0.99 -0.99,-0.99l-7.89,0c-0.55,0 -0.99,0.44 -0.99,0.99l0,0.5c0,0.54 0.44,0.99 0.99,0.99l1.45,0l0,143.61l-1.45,0c-0.55,0 -0.99,0.45 -0.99,0.99l0,0.5c0,0.55 0.44,0.99 0.99,0.99l7.89,0c0.55,0 0.99,-0.44 0.99,-0.99l0,-0.5c0,-0.54 -0.44,-0.99 -0.99,-0.99l-1.44,0l0,-14.92l29.25,0l0,14.92l-1.44,0c-0.55,0 -0.99,0.45 -0.99,0.99l0,0.5c0,0.55 0.44,0.99 0.99,0.99l7.88,0c0.55,0 1,-0.44 1,-0.99l0,-0.5c0,-0.54 -0.45,-0.99 -1,-0.99l-1.44,0l0,-143.61zm-5,124.69l-29.25,0l0,-12.93l29.25,0l0,12.93zm0,-16.93l-29.25,0l0,-12.95l29.25,0l0,12.95zm0,-16.95l-29.25,0l0,-12.9l29.25,0l0,12.9zm0,-16.9l-29.25,0l0,-12.95l29.25,0l0,12.95zm0,-16.95l-29.25,0l0,-12.96l29.25,0l0,12.96zm0,-16.96l-29.25,0l0,-12.96l29.25,0l0,12.96z" class="st2"/>
   </g>
  </g>
  <g>
   <g>
    <rect fill="#44245F" height="5.77" width="5.77" class="st1" y="30.12" x="155.47"/>
    <rect fill="#44245F" height="5.77" width="5.77" class="st1" y="30.12" x="144.74"/>
    <g>
     <polygon fill="#94C020" points="138.67999267578125,24 138.67999267578125,53.400001525878906 136.30999755859375,53.400001525878906 136.30999755859375,53.410003662109375 120.87001037597656,53.410003662109375 120.87001037597656,24 " class="st0"/>
     <polygon fill="#94C020" points="185.1300048828125,24 185.1300048828125,53.410003662109375 169.69000244140625,53.410003662109375 169.69000244140625,53.400001525878906 167.32000732421875,53.400001525878906 167.32000732421875,24 " class="st0"/>
     <rect fill="#94C020" height="29.61" width="16.76" class="st0" y="126.39" x="119.55"/>
     <rect fill="#94C020" height="29.61" width="16.76" class="st0" y="126.39" x="169.69"/>
     <path fill="#94C020" d="m141.62,26.94l0,26.46l22.76,0l0,-26.46l-22.76,0zm8.89,8.96l-5.77,0l0,-5.77l5.77,0l0,5.77zm10.74,0l-5.78,0l0,-5.77l5.78,0l0,5.77z" class="st0"/>
     <path fill="#44245F" d="m141.62,26.94l22.76,0l0,26.46l-22.76,0l0,-26.46zm25.7,26.46l0,-29.4l-28.64,0l0,29.4l-2.37,0l0,102.59l33.38,0l0,-102.59l-2.37,0zm-2.77,30.91l-1.43,0l0,5.76l-8.5,4.76l0,12.39c1.77,0.43 3.09,2.01 3.09,3.92c0,2.23 -1.81,4.05 -4.04,4.05c-2.24,0 -4.05,-1.82 -4.05,-4.05c0,-1.91 1.32,-3.49 3.09,-3.92l0,-6.22l-8.5,-4.76l0,-5.96c-0.84,-0.37 -1.43,-1.21 -1.43,-2.18c0,-1.32 1.07,-2.38 2.38,-2.38c1.32,0 2.38,1.06 2.38,2.38c0,0.97 -0.59,1.81 -1.43,2.18l0,4.85l6.6,3.69l0,-23.23l-1.98,0l2.94,-5.08l2.93,5.08l-1.98,0l0,17.06l6.6,-3.69l0,-4.65l-1.43,0l0,-4.77l4.76,0l0,4.77z" class="st1"/>
     <path fill="#94C020" d="m164.55,79.54l0,4.77l-1.43,0l0,5.76l-8.5,4.76l0,12.39c1.77,0.43 3.09,2.01 3.09,3.92c0,2.23 -1.81,4.05 -4.04,4.05c-2.24,0 -4.05,-1.82 -4.05,-4.05c0,-1.91 1.32,-3.49 3.09,-3.92l0,-6.22l-8.5,-4.76l0,-5.96c-0.84,-0.37 -1.43,-1.21 -1.43,-2.18c0,-1.32 1.07,-2.38 2.38,-2.38c1.32,0 2.38,1.06 2.38,2.38c0,0.97 -0.59,1.81 -1.43,2.18l0,4.85l6.6,3.69l0,-23.23l-1.98,0l2.94,-5.08l2.93,5.08l-1.98,0l0,17.06l6.6,-3.69l0,-4.65l-1.43,0l0,-4.77l4.76,0z" class="st0"/>
    </g>
   </g>
  </g>
 </g>

</svg>